HIERARCHY
ROOT Hips
{
	OFFSET -0.001795 -0.223333 0.028219
	CHANNELS 6 Xposition Yposition Zposition Zrotation Yrotation Xrotation 
	JOINT LeftUpLeg
	{
		OFFSET 0.069520 -0.091406 -0.006815
		CHANNELS 3 Zrotation Yrotation Xrotation
		JOINT LeftLeg
		{
			OFFSET 0.034277 -0.375199 -0.004496
			CHANNELS 3 Zrotation Yrotation Xrotation
			JOINT LeftFoot
			{
				OFFSET -0.013596 -0.397961 -0.043693
				CHANNELS 3 Zrotation Yrotation Xrotation
				JOINT LeftToe
				{
					OFFSET 0.026358 -0.055791 0.119288
					CHANNELS 3 Zrotation Yrotation Xrotation
					End Site
					{
						OFFSET 0.000000 0.000000 0.000000
					}
				}
			}
		}
	}
	JOINT RightUpLeg
	{
		OFFSET -0.067670 -0.090522 -0.004320
		CHANNELS 3 Zrotation Yrotation Xrotation
		JOINT RightLeg
		{
			OFFSET -0.038290 -0.382569 -0.008850
			CHANNELS 3 Zrotation Yrotation Xrotation
			JOINT RightFoot
			{
				OFFSET 0.015774 -0.398415 -0.042312
				CHANNELS 3 Zrotation Yrotation Xrotation
				JOINT RightToe
				{
					OFFSET -0.025372 -0.048144 0.123348
					CHANNELS 3 Zrotation Yrotation Xrotation
					End Site
					{
						OFFSET 0.000000 0.000000 0.000000
					}
				}
			}
		}
	}
	JOINT Spine
	{
		OFFSET -0.002533 0.108963 -0.026696
		CHANNELS 3 Zrotation Yrotation Xrotation
		JOINT Spine1
		{
			OFFSET 0.005487 0.135180 0.001092
			CHANNELS 3 Zrotation Yrotation Xrotation
			JOINT Spine2
			{
				OFFSET 0.001457 0.052922 0.025425
				CHANNELS 3 Zrotation Yrotation Xrotation
				JOINT Neck
				{
					OFFSET -0.002778 0.213870 -0.042857
					CHANNELS 3 Zrotation Yrotation Xrotation
					JOINT Head
					{
						OFFSET 0.005152 0.064970 0.051349
						CHANNELS 3 Zrotation Yrotation Xrotation
						End Site
						{
							OFFSET 0.000000 0.000000 0.000000
						}
					}
				}
				JOINT LeftShoulder
				{
					OFFSET 0.078845 0.121749 -0.034090
					CHANNELS 3 Zrotation Yrotation Xrotation
					JOINT LeftArm
					{
						OFFSET 0.090977 0.030469 -0.008868
						CHANNELS 3 Zrotation Yrotation Xrotation
						JOINT LeftForeArm
						{
							OFFSET 0.259612 -0.012772 -0.027456
							CHANNELS 3 Zrotation Yrotation Xrotation
							JOINT LeftHand
							{
								OFFSET 0.249234 0.008986 -0.001171
								CHANNELS 3 Zrotation Yrotation Xrotation
								End Site
								{
									OFFSET 0.000000 0.000000 0.000000
								}
							}
						}
					}
				}
				JOINT RightShoulder
				{
					OFFSET -0.081759 0.118833 -0.038615
					CHANNELS 3 Zrotation Yrotation Xrotation
					JOINT RightArm
					{
						OFFSET -0.096012 0.032551 -0.009143
						CHANNELS 3 Zrotation Yrotation Xrotation
						JOINT RightForeArm
						{
							OFFSET -0.253742 -0.013329 -0.021401
							CHANNELS 3 Zrotation Yrotation Xrotation
							JOINT RightHand
							{
								OFFSET -0.255298 0.007772 -0.005559
								CHANNELS 3 Zrotation Yrotation Xrotation
								End Site
								{
									OFFSET 0.000000 0.000000 0.000000
								}
							}
						}
					}
				}
			}
		}
	}
}
MOTION
Frames: 10
Frame Time: 0.050000
0.000000 0.830158 0.000000 1.009214 7.407314 4.190995 17.463533 0.546626 -29.733499 -28.583643 11.608940 43.418852 19.261689 34.622593 10.037871 0.000000 0.000000 0.000000 -7.939049 0.348616 -37.317695 2.278920 -1.315091 58.034611 -5.574282 -13.441983 -2.632469 0.000000 0.000000 0.000000 3.750984 -3.123910 30.944534 0.439246 -0.429913 3.676976 -6.976286 -0.535689 5.564382 10.697531 -3.932756 -21.353674 0.000000 0.000000 0.000000 -14.947649 -43.851965 20.765141 -5.506354 -30.884490 -0.820868 40.514259 -23.044223 -7.614260 0.000000 0.000000 0.000000 15.072335 34.370317 17.731705 19.046295 42.349241 3.115575 -43.658567 32.708040 -10.807170 0.000000 0.000000 0.000000 
-0.001038 0.843077 0.006217 0.524341 5.930800 4.545418 17.875559 0.701684 -27.109408 -28.257669 10.988043 39.613597 19.219603 34.284584 10.869378 0.000000 0.000000 0.000000 -6.827607 0.930197 -36.634666 1.957970 -0.595031 55.895401 -5.009007 -12.442559 -0.089070 0.000000 0.000000 0.000000 2.907886 -2.495797 28.690134 0.935026 -0.675341 3.840370 -7.307099 0.717797 5.074219 11.580960 -4.283949 -21.524398 0.000000 0.000000 0.000000 -17.280998 -42.314900 20.455554 -6.300964 -30.748520 -0.643360 39.567111 -28.527688 -9.270933 0.000000 0.000000 0.000000 18.489676 32.211636 17.901883 22.931951 42.891488 4.307793 -41.959102 37.890191 -12.067544 0.000000 0.000000 0.000000 
-0.001080 0.858810 0.012951 0.135187 6.328305 3.420207 16.026897 0.239053 -22.836076 -24.824814 8.516133 36.071697 18.411874 33.431819 9.174725 0.000000 0.000000 0.000000 -6.131701 1.028649 -30.780910 1.849082 -0.532381 49.203591 -5.173531 -12.567302 -2.114838 0.000000 0.000000 0.000000 4.425549 -2.691635 26.554534 0.904705 -0.627925 3.209313 -8.272991 -1.098811 7.461528 11.756840 -4.777231 -21.073942 0.000000 0.000000 0.000000 -16.849193 -41.269873 20.034816 -10.174299 -30.487848 -0.056950 40.523085 -29.928334 -10.020698 0.000000 0.000000 0.000000 21.203282 32.618673 18.464799 25.114608 39.006486 4.107030 -39.410805 45.646002 -14.148394 0.000000 0.000000 0.000000 
-0.000696 0.876983 0.019481 -0.317927 5.638965 3.203500 15.615280 0.125440 -18.478592 -23.503069 7.091575 30.176049 17.843244 32.320277 9.973242 0.000000 0.000000 0.000000 -4.439403 1.422703 -27.284247 0.277253 0.574501 43.877882 -4.771675 -11.878581 -0.284804 0.000000 0.000000 0.000000 4.922878 -2.481802 24.039511 0.939654 -0.631674 3.114122 -8.411196 -1.387303 8.279669 12.124517 -4.669365 -23.061804 0.000000 0.000000 0.000000 -17.055620 -38.851467 18.815323 -13.752750 -29.776434 0.459863 41.386107 -34.795456 -12.035174 0.000000 0.000000 0.000000 19.098994 30.961967 16.600520 32.581818 39.791521 6.447695 -36.482872 50.185931 -14.385276 0.000000 0.000000 0.000000 
0.000389 0.893197 0.025828 -0.279410 5.646700 3.175463 13.791650 -0.131800 -15.382932 -20.720927 5.459672 25.876165 17.257878 31.138116 11.410484 0.000000 0.000000 0.000000 -3.851789 1.383818 -23.202593 -0.670978 1.004905 37.531120 -4.536839 -11.483155 0.650149 0.000000 0.000000 0.000000 5.452935 -2.358975 21.933380 0.666036 -0.402795 1.496310 -8.411063 -1.933894 10.247011 12.395686 -4.743044 -24.193254 0.000000 0.000000 0.000000 -17.501105 -37.559515 18.362008 -17.739071 -28.965824 0.911008 42.042707 -39.681894 -14.073338 0.000000 0.000000 0.000000 18.868248 29.300115 15.385758 37.877660 37.844263 7.250267 -33.697475 54.811386 -14.491149 0.000000 0.000000 0.000000 
0.002194 0.908504 0.031882 -0.217619 5.398022 4.031520 12.724098 -0.267037 -12.516936 -19.307919 4.317198 20.062228 16.671632 29.976817 13.304521 0.000000 0.000000 0.000000 -3.412377 1.350846 -20.475716 -1.636001 1.346896 31.567493 -4.126300 -10.861362 2.654675 0.000000 0.000000 0.000000 5.901496 -2.129431 19.091677 0.605119 -0.361632 1.300213 -8.365658 -1.869736 10.479644 12.261657 -4.599964 -24.536239 0.000000 0.000000 0.000000 -18.278885 -35.753255 17.588576 -23.325726 -27.177641 1.433948 40.241711 -46.674457 -15.922314 0.000000 0.000000 0.000000 19.106737 27.519865 14.442029 42.205665 35.169610 7.414376 -26.491475 59.815577 -11.869952 0.000000 0.000000 0.000000 
0.004913 0.920874 0.037403 -0.172495 5.054023 4.517555 11.489854 -0.351130 -10.538643 -17.630061 3.493673 16.383495 16.265438 29.063504 15.691799 0.000000 0.000000 0.000000 -3.513279 1.205179 -17.685727 -1.861285 1.305218 26.086310 -3.622528 -10.065441 4.569880 0.000000 0.000000 0.000000 6.350871 -1.856842 16.022037 0.068655 -0.071909 0.689974 -8.155050 -1.948619 11.065682 12.360306 -4.707240 -24.543607 0.000000 0.000000 0.000000 -19.964651 -33.339132 16.736766 -27.773659 -24.831138 1.487742 35.664719 -54.493550 -16.396648 0.000000 0.000000 0.000000 21.066228 25.284625 13.517619 44.703100 32.806743 7.035995 -16.170847 62.920264 -6.379235 0.000000 0.000000 0.000000 
0.007897 0.928439 0.041868 -0.005034 4.832686 5.388885 10.318588 -0.417516 -9.548496 -16.314899 2.918731 13.572926 16.044474 28.583529 17.119176 0.000000 0.000000 0.000000 -3.752883 1.067781 -15.433450 -2.165399 1.228847 20.851133 -3.300665 -9.547011 5.539773 0.000000 0.000000 0.000000 6.298250 -1.523921 13.000189 -0.248577 0.075899 0.767699 -7.471421 -1.652904 10.903282 12.102859 -4.746227 -23.524507 0.000000 0.000000 0.000000 -21.729468 -31.751948 16.215395 -30.994518 -21.845862 1.156943 27.814540 -61.126495 -13.976024 0.000000 0.000000 0.000000 21.806949 23.809015 12.841804 46.617657 30.465570 6.498728 -6.903235 64.883759 -0.778816 0.000000 0.000000 0.000000 
0.010688 0.931396 0.045430 0.078133 4.710551 5.604231 9.696932 -0.428611 -8.133645 -15.759782 2.579945 11.212538 15.888739 28.337478 17.304623 0.000000 0.000000 0.000000 -3.493522 1.023115 -14.093418 -3.095030 1.395342 18.450775 -3.154325 -9.338071 6.082253 0.000000 0.000000 0.000000 6.466403 -1.310883 10.826198 -0.519785 0.195041 1.037414 -7.171489 -1.450046 10.824837 11.846828 -4.706646 -22.929325 0.000000 0.000000 0.000000 -22.967650 -30.155408 15.479677 -33.370487 -19.103953 0.670835 18.148180 -66.168679 -9.046535 0.000000 0.000000 0.000000 22.315819 22.414295 12.127136 47.249947 28.816782 5.932832 0.764413 65.209040 4.059546 0.000000 0.000000 0.000000 
0.012855 0.932584 0.048248 0.184691 4.643187 5.531719 9.054615 -0.423466 -6.830450 -15.137823 2.309217 9.524730 15.798424 28.219432 17.121675 0.000000 0.000000 0.000000 -3.238244 0.942116 -12.370881 -4.012859 1.500457 15.901916 -3.085280 -9.189877 6.074717 0.000000 0.000000 0.000000 6.312946 -1.090285 8.971737 -0.698396 0.275373 1.203816 -6.832920 -1.066152 10.748694 11.926700 -4.803510 -22.497441 0.000000 0.000000 0.000000 -23.049765 -28.746626 14.482030 -35.752286 -16.875480 0.222123 7.167294 -69.524041 -2.082053 0.000000 0.000000 0.000000 23.166344 21.357875 11.747525 48.339981 27.659524 5.612482 6.001153 64.126720 7.287590 0.000000 0.000000 0.000000 
